HIERARCHY
ROOT hip
{
  OFFSET 0 0 0
  CHANNELS 6 Xposition Yposition Zposition Zrotation Yrotation Xrotation
  JOINT abdomen
  {
    OFFSET 0 20.6881 -0.73152
    CHANNELS 3 Zrotation Xrotation Yrotation
    JOINT chest
    {
      OFFSET 0 11.7043 -0.48768
      CHANNELS 3 Zrotation Xrotation Yrotation
      JOINT neck
      {
        OFFSET 0 22.1894 -2.19456
        CHANNELS 3 Zrotation Xrotation Yrotation
        JOINT head
        {
          OFFSET -0.24384 7.07133 1.2192
          CHANNELS 3 Zrotation Xrotation Yrotation
          JOINT leftEye
          {
            OFFSET 4.14528 8.04674 8.04672
            CHANNELS 3 Zrotation Xrotation Yrotation
            End Site
            {
              OFFSET 1 0 0
            }
          }
          JOINT rightEye
          {
            OFFSET -3.6576 8.04674 8.04672
            CHANNELS 3 Zrotation Xrotation Yrotation
            End Site
            {
              OFFSET 1 0 0
            }
          }
        }
      }
      JOINT rCollar
      {
        OFFSET -2.68224 19.2634 -4.8768
        CHANNELS 3 Zrotation Xrotation Yrotation
        JOINT rShldr
        {
          OFFSET -8.77824 -1.95073 1.46304
          CHANNELS 3 Zrotation Xrotation Yrotation
          JOINT rForeArm
          {
            OFFSET -28.1742 -1.7115 0.48768
            CHANNELS 3 Zrotation Xrotation Yrotation
            JOINT rHand
            {
              OFFSET -22.5879 0.773209 7.07136
              CHANNELS 3 Zrotation Xrotation Yrotation
              JOINT rThumb1
              {
                OFFSET -1.2192 -0.487915 3.41376
                CHANNELS 3 Zrotation Xrotation Yrotation
                JOINT rThumb2
                {
                  OFFSET -3.37035 -0.52449 3.41376
                  CHANNELS 3 Zrotation Xrotation Yrotation
                  End Site
                  {
                    OFFSET -1.78271 -1.18214 1.43049
                  }
                }
              }
              JOINT rIndex1
              {
                OFFSET -7.75947 0.938293 5.60832
                CHANNELS 3 Zrotation Xrotation Yrotation
                JOINT rIndex2
                {
                  OFFSET -2.54057 -0.884171 1.56538
                  CHANNELS 3 Zrotation Xrotation Yrotation
                  End Site
                  {
                    OFFSET -1.62519 -0.234802 1.16502
                  }
                }
              }
              JOINT rMid1
              {
                OFFSET -8.24714 1.18213 3.41376
                CHANNELS 3 Zrotation Xrotation Yrotation
                JOINT rMid2
                {
                  OFFSET -3.10165 -0.590103 1.0647
                  CHANNELS 3 Zrotation Xrotation Yrotation
                  End Site
                  {
                    OFFSET -2.48547 -0.328903 0.83742
                  }
                }
              }
              JOINT rRing1
              {
                OFFSET -8.82822 0.546677 1.51678
                CHANNELS 3 Zrotation Xrotation Yrotation
                JOINT rRing2
                {
                  OFFSET -2.60934 -0.819778 -0.0198488
                  CHANNELS 3 Zrotation Xrotation Yrotation
                  End Site
                  {
                    OFFSET -2.33842 -0.294052 0.168128
                  }
                }
              }
              JOINT rPinky1
              {
                OFFSET -8.27202 -0.0477905 -0.4584
                CHANNELS 3 Zrotation Xrotation Yrotation
                JOINT rPinky2
                {
                  OFFSET -1.82734 -0.647385 -0.700984
                  CHANNELS 3 Zrotation Xrotation Yrotation
                  End Site
                  {
                    OFFSET -1.69225 -0.51767 -0.607171
                  }
                }
              }
            }
          }
        }
      }
      JOINT lCollar
      {
        OFFSET 2.68224 19.2634 -4.8768
        CHANNELS 3 Zrotation Xrotation Yrotation
        JOINT lShldr
        {
          OFFSET 8.77824 -1.95073 1.46304
          CHANNELS 3 Zrotation Xrotation Yrotation
          JOINT lForeArm
          {
            OFFSET 28.1742 -1.7115 0.48768
            CHANNELS 3 Zrotation Xrotation Yrotation
            JOINT lHand
            {
              OFFSET 22.5879 0.773209 7.07136
              CHANNELS 3 Zrotation Xrotation Yrotation
              JOINT lThumb1
              {
                OFFSET 1.2192 -0.487915 3.41376
                CHANNELS 3 Zrotation Xrotation Yrotation
                JOINT lThumb2
                {
                  OFFSET 3.37035 -0.52449 3.41376
                  CHANNELS 3 Zrotation Xrotation Yrotation
                  End Site
                  {
                    OFFSET 1.78271 -1.18214 1.43049
                  }
                }
              }
              JOINT lIndex1
              {
                OFFSET 7.75947 0.938293 5.60832
                CHANNELS 3 Zrotation Xrotation Yrotation
                JOINT lIndex2
                {
                  OFFSET 2.54057 -0.884171 1.56538
                  CHANNELS 3 Zrotation Xrotation Yrotation
                  End Site
                  {
                    OFFSET 1.62519 -0.234802 1.16502
                  }
                }
              }
              JOINT lMid1
              {
                OFFSET 8.24714 1.18213 3.41376
                CHANNELS 3 Zrotation Xrotation Yrotation
                JOINT lMid2
                {
                  OFFSET 3.10165 -0.590103 1.0647
                  CHANNELS 3 Zrotation Xrotation Yrotation
                  End Site
                  {
                    OFFSET 2.48547 -0.328903 0.83742
                  }
                }
              }
              JOINT lRing1
              {
                OFFSET 8.82822 0.546677 1.51678
                CHANNELS 3 Zrotation Xrotation Yrotation
                JOINT lRing2
                {
                  OFFSET 2.60934 -0.819778 -0.0198488
                  CHANNELS 3 Zrotation Xrotation Yrotation
                  End Site
                  {
                    OFFSET 2.33842 -0.294052 0.168128
                  }
                }
              }
              JOINT lPinky1
              {
                OFFSET 8.27202 -0.0477905 -0.4584
                CHANNELS 3 Zrotation Xrotation Yrotation
                JOINT lPinky2
                {
                  OFFSET 1.82734 -0.647385 -0.700984
                  CHANNELS 3 Zrotation Xrotation Yrotation
                  End Site
                  {
                    OFFSET 1.69225 -0.51767 -0.607171
                  }
                }
              }
            }
          }
        }
      }
    }
  }
  JOINT rButtock
  {
    OFFSET -8.77824 4.35084 1.2192
    CHANNELS 3 Zrotation Xrotation Yrotation
    JOINT rThigh
    {
      OFFSET 0 -1.70687 -2.19456
      CHANNELS 3 Zrotation Xrotation Yrotation
      JOINT rShin
      {
        OFFSET 0 -36.8199 0.73152
        CHANNELS 3 Zrotation Xrotation Yrotation
        JOINT rFoot
        {
          OFFSET 0.73152 -45.1104 -5.12064
          CHANNELS 3 Zrotation Xrotation Yrotation
          End Site
          {
            OFFSET -1.1221 -3.69964 12.103
          }
        }
      }
    }
  }
  JOINT lButtock
  {
    OFFSET 8.77824 4.35084 1.2192
    CHANNELS 3 Zrotation Xrotation Yrotation
    JOINT lThigh
    {
      OFFSET 0 -1.70687 -2.19456
      CHANNELS 3 Zrotation Xrotation Yrotation
      JOINT lShin
      {
        OFFSET 0 -36.8199 0.73152
        CHANNELS 3 Zrotation Xrotation Yrotation
        JOINT lFoot
        {
          OFFSET -0.73152 -45.1104 -5.12064
          CHANNELS 3 Zrotation Xrotation Yrotation
          End Site
          {
            OFFSET 1.1221 -3.69964 12.103
          }
        }
      }
    }
  }
}
MOTION
Frames:	4
Frame Time:	0.00833333
26.7814 82.7142 22.9526 -167.038 -78.1382 160.492 2.21072 12.8758 5.04599 0.659878 -17.8682 1.6989 -3.14964 1.65762 -5.1568 4.78273 15.0207 -12.1029 -0.0 0.0 0.0 -0.0 0.0 0.0 8.28495e-14 -2.83616e-12 1.0831e-13 54.4695 14.7295 -14.1403 -27.53 -28.3051 64.5497 -0.226023 13.4187 1.92148 3.64373e-10 9.33039e-10 -7.22211e-10 6.21227e-10 1.60223e-09 -1.24948e-09 3.64376e-10 9.33039e-10 -7.22218e-10 7.73091 5.47488 0.417314 3.64371e-10 9.33043e-10 -7.22212e-10 2.90554 0.965183 0.102902 3.64374e-10 9.33042e-10 -7.22208e-10 10.2786 0.731801 0.0259123 3.64366e-10 9.33045e-10 -7.222e-10 2.22167 -0.733487 -0.20892 8.27785e-14 -2.83616e-12 1.08286e-13 -32.7617 5.20507 -6.03242 26.0084 -23.4574 -56.81 0.0281546 4.80172 -0.676418 3.65253e-10 -8.49204e-10 -4.75186e-10 6.31515e-10 -1.47015e-09 -8.19708e-10 3.65245e-10 -8.49201e-10 -4.75169e-10 -7.73091 5.47488 -0.417314 3.65254e-10 -8.49204e-10 -4.75182e-10 -2.90554 0.965183 -0.102902 3.6525e-10 -8.49203e-10 -4.75183e-10 -10.2786 0.731801 -0.0259123 3.65261e-10 -8.49201e-10 -4.75193e-10 -2.22167 -0.733487 0.20892 -2.03217e-16 0.0 -3.88251e-19 -17.6714 -61.3828 11.5799 -0.0886476 16.9711 0.700942 -2.88448 -1.07203 -42.423 2.03217e-16 0.0 3.88251e-19 -17.6446 -4.47472 -15.9357 -0.117115 17.6058 -1.03449 5.94738 -26.0125 12.7364
26.0627 82.5947 22.7263 -167.205 -78.3308 160.57 1.58018 12.4282 4.44897 0.31812 -18.2027 1.55601 -3.27466 1.7121 -5.28477 4.96218 15.2341 -12.4 -0.0 0.0 0.0 -0.0 0.0 0.0 9.95758e-14 -2.87125e-12 9.06458e-14 54.9227 14.941 -14.4893 -27.5306 -28.3077 64.5537 -0.228885 13.5003 1.93362 8.59577e-10 1.66056e-09 -9.1745e-10 1.47509e-09 2.85905e-09 -1.5911e-09 8.59581e-10 1.66056e-09 -9.17456e-10 7.73091 5.47488 0.417314 8.59577e-10 1.66056e-09 -9.1745e-10 2.90554 0.965183 0.102902 8.59579e-10 1.66056e-09 -9.17447e-10 10.2786 0.731801 0.0259123 8.5957e-10 1.66057e-09 -9.17441e-10 2.22167 -0.733487 -0.20892 9.95136e-14 -2.87125e-12 9.05961e-14 -32.185 4.98188 -6.17234 26.2057 -23.9742 -57.6359 0.0248541 4.49583 -0.63316 -5.20136e-11 -6.29854e-10 -4.17362e-10 -8.9077e-11 -1.09226e-09 -7.18818e-10 -5.20176e-11 -6.29853e-10 -4.17346e-10 -7.73091 5.47488 -0.417314 -5.20135e-11 -6.29853e-10 -4.17359e-10 -2.90554 0.965183 -0.102902 -5.20184e-11 -6.29853e-10 -4.17359e-10 -10.2786 0.731801 -0.0259123 -5.20062e-11 -6.29852e-10 -4.17368e-10 -2.22167 -0.733487 0.20892 -2.03217e-16 0.0 -3.88251e-19 -20.5719 -61.6861 2.91175 -0.105802 21.0574 0.781595 8.92745 11.169 -45.9792 2.03217e-16 0.0 3.88251e-19 -18.1861 -4.29469 -15.6032 -0.16407 18.6724 -1.58692 5.96176 -26.757 12.5018
25.4502 82.5249 22.5015 -167.432 -78.4738 160.679 0.960068 12.2196 4.18683 0.186405 -18.4355 1.48225 -3.36916 1.84078 -5.39781 5.10499 15.3506 -12.6661 -0.0 0.0 0.0 -0.0 0.0 0.0 8.96448e-14 -2.50507e-12 6.37897e-14 55.3455 15.1507 -14.8905 -27.5269 -28.2923 64.5295 -0.228756 13.4961 1.933 1.56776e-09 2.573e-09 -1.13367e-09 2.69687e-09 4.43539e-09 -1.97158e-09 1.56776e-09 2.573e-09 -1.13368e-09 7.73091 5.47488 0.417314 1.56776e-09 2.573e-09 -1.13367e-09 2.90554 0.965183 0.102902 1.56776e-09 2.573e-09 -1.13367e-09 10.2786 0.731801 0.0259123 1.56775e-09 2.57301e-09 -1.13366e-09 2.22167 -0.733487 -0.20892 8.95756e-14 -2.50506e-12 6.36612e-14 -31.7032 4.7677 -6.27785 26.4112 -24.5373 -58.5204 0.0225753 4.27548 -0.602018 -7.42354e-10 -1.57615e-10 -2.08709e-10 -1.28158e-09 -2.77361e-10 -3.56741e-10 -7.42356e-10 -1.57614e-10 -2.08695e-10 -7.73091 5.47488 -0.417314 -7.42354e-10 -1.57614e-10 -2.08708e-10 -2.90554 0.965183 -0.102902 -7.4236e-10 -1.57614e-10 -2.08706e-10 -10.2786 0.731801 -0.0259123 -7.42347e-10 -1.57614e-10 -2.08715e-10 -2.22167 -0.733487 0.20892 -2.03217e-16 0.0 -3.88251e-19 -21.5312 -62.6236 -1.90525 -0.128623 27.0672 0.944258 14.9611 16.9209 -47.3554 2.03217e-16 0.0 3.88251e-19 -18.6916 -4.08896 -15.3124 -0.19484 19.6074 -1.88558 6.02633 -27.4417 12.4989
24.7673 82.4193 22.2406 -167.665 -78.5977 160.749 0.270423 12.1379 4.08601 0.154129 -18.6425 1.43918 -3.44577 2.01453 -5.50412 5.22948 15.4123 -12.919 -0.0 0.0 0.0 -0.0 0.0 0.0 6.39882e-14 -1.84781e-12 3.1644e-14 55.7621 15.3603 -15.3397 -27.5204 -28.2653 64.4873 -0.226567 13.4331 1.92363 2.41669e-09 3.61991e-09 -1.35759e-09 4.16185e-09 6.24431e-09 -2.367e-09 2.41669e-09 3.61991e-09 -1.35761e-09 7.73091 5.47488 0.417314 2.41669e-09 3.61991e-09 -1.35759e-09 2.90554 0.965183 0.102902 2.41669e-09 3.61991e-09 -1.35759e-09 10.2786 0.731801 0.0259123 2.41668e-09 3.61991e-09 -1.35759e-09 2.22167 -0.733487 -0.20892 6.39029e-14 -1.84781e-12 3.13987e-14 -31.2847 4.55143 -6.34632 26.6168 -25.1314 -59.4628 0.0206944 4.09022 -0.575842 -1.60772e-09 4.72509e-10 9.05297e-11 -2.77648e-09 8.10313e-10 1.62074e-10 -1.60772e-09 4.72511e-10 9.05421e-11 -7.73091 5.47488 -0.417314 -1.60772e-09 4.7251e-10 9.05285e-11 -2.90554 0.965183 -0.102902 -1.60772e-09 4.72509e-10 9.05312e-11 -10.2786 0.731801 -0.0259123 -1.60771e-09 4.72507e-10 9.05228e-11 -2.22167 -0.733487 0.20892 -2.03217e-16 0.0 -3.88251e-19 -22.2954 -63.9849 -6.06486 -0.203083 34.4116 1.19862 17.5287 20.1241 -46.6599 2.03217e-16 0.0 3.88251e-19 -19.2357 -3.84712 -15.0146 -0.222458 20.554 -2.07494 6.14914 -28.1698 12.6346
